<svg width="64" height="64" viewBox="0 0 64 64" fill="none" xmlns="http://www.w3.org/2000/svg">
<circle cx="32" cy="32" r="30.75" stroke="#FFBB62" stroke-width="2.5"/>
<path d="M33.74 47L32 46L36 39H42C42.5304 39 43.0391 38.7893 43.4142 38.4142C43.7893 38.0391 44 37.5304 44 37V25C44 24.4696 43.7893 23.9609 43.4142 23.5858C43.0391 23.2107 42.5304 23 42 23H22C21.4696 23 20.9609 23.2107 20.5858 23.5858C20.2107 23.9609 20 24.4696 20 25V37C20 37.5304 20.2107 38.0391 20.5858 38.4142C20.9609 38.7893 21.4696 39 22 39H31V41H22C20.9391 41 19.9217 40.5786 19.1716 39.8284C18.4214 39.0783 18 38.0609 18 37V25C18 23.9391 18.4214 22.9217 19.1716 22.1716C19.9217 21.4214 20.9391 21 22 21H42C43.0609 21 44.0783 21.4214 44.8284 22.1716C45.5786 22.9217 46 23.9391 46 25V37C46 38.0609 45.5786 39.0783 44.8284 39.8284C44.0783 40.5786 43.0609 41 42 41H37.16L33.74 47Z" fill="white"/>
<path d="M40 27H24V29H40V27Z" fill="white"/>
<path d="M34 33H24V35H34V33Z" fill="white"/>
</svg>
