<svg  width="260" height="81"  id="Layer_1" data-name="Layer 1" xmlns="http://www.w3.org/2000/svg" xmlns:xlink="http://www.w3.org/1999/xlink" viewBox="0 0 260 81.25"><defs><style>.cls-1,.cls-2,.cls-3,.cls-4,.cls-5{fill-rule:evenodd;}.cls-1{fill:url(#linear-gradient);}.cls-2{fill:url(#linear-gradient-2);}.cls-3{fill:url(#linear-gradient-3);}.cls-4{fill:url(#linear-gradient-4);}.cls-5,.cls-6{fill:#fff;}</style><linearGradient id="linear-gradient" x1="33.02" y1="68.16" x2="44.4" y2="21.46" gradientTransform="matrix(1, 0, 0, -1, 0, 81.89)" gradientUnits="userSpaceOnUse"><stop offset="0" stop-color="#006884"/><stop offset="1" stop-color="#8ad1d0"/></linearGradient><linearGradient id="linear-gradient-2" x1="19.15" y1="61.47" x2="50.14" y2="44.71" gradientTransform="matrix(1, 0, 0, -1, 0, 81.89)" gradientUnits="userSpaceOnUse"><stop offset="0" stop-color="#24bbb6"/><stop offset="1" stop-color="#dbe692"/></linearGradient><linearGradient id="linear-gradient-3" x1="54.84" y1="33.54" x2="54.84" y2="49.68" gradientTransform="matrix(1, 0, 0, -1, 0, 81.89)" gradientUnits="userSpaceOnUse"><stop offset="0" stop-color="#fcc072"/><stop offset="1" stop-color="#f58a5b"/></linearGradient><linearGradient id="linear-gradient-4" x1="25.12" y1="14" x2="49.6" y2="38.91" gradientTransform="matrix(1, 0, 0, -1, 0, 81.89)" gradientUnits="userSpaceOnUse"><stop offset="0" stop-color="#712b8f"/><stop offset="1" stop-color="#ea1d27"/></linearGradient></defs><path d="M251.88,81.62H8.13A8.15,8.15,0,0,1,0,73.5V8.5A8.16,8.16,0,0,1,8.13.37H251.88A8.15,8.15,0,0,1,260,8.5v65A8.15,8.15,0,0,1,251.88,81.62Z" transform="translate(0 -0.37)"/><path class="cls-1" d="M19.91,40.19V18.86a2.23,2.23,0,0,1,2-2.24,3.07,3.07,0,0,1,2,.61l39.2,21.54a1.9,1.9,0,0,1,1.22,1.62A1.92,1.92,0,0,1,63.17,42L24,63.55a4,4,0,0,1-2,.61,2.23,2.23,0,0,1-2-2.24Z" transform="translate(0 -0.37)"/><path class="cls-2" d="M45.3,40.39,21.53,16.62h.41a3.07,3.07,0,0,1,2,.61L52.81,33.08Z" transform="translate(0 -0.37)"/><path class="cls-3" d="M52.61,47.5,45.3,40.19l7.51-7.52,10.36,5.69a1.69,1.69,0,0,1,0,3.25Z" transform="translate(0 -0.37)"/><path class="cls-4" d="M21.73,63.75,45.3,40.19l7.31,7.31L24,63.14a3.26,3.26,0,0,1-2.24.61Z" transform="translate(0 -0.37)"/><path class="cls-5" d="M144.42,69.23a9.68,9.68,0,0,1-2.23-3l3.25-1.42c.2.4.61,1,1,1.62A5,5,0,0,0,149.7,68a4.66,4.66,0,0,0,3.46-1.63,6.29,6.29,0,0,0,1-3.45V61.72c-2.44,3-7.51,2.64-10.36-.61a9,9,0,0,1,0-12c3.05-3,7.52-3.45,10.16-.6V47.09h3.45V62.33c0,3.86-1.42,6.09-3.25,7.51a7.46,7.46,0,0,1-4.67,1.43A9.37,9.37,0,0,1,144.42,69.23Zm85.11.82L233,61.92l-6.09-14h3.45l4.27,10,4.27-10h3.45L233,70.05Zm-16.45-7.72a5.35,5.35,0,0,1-1.42-3.86,4.57,4.57,0,0,1,1.22-3.25,7.83,7.83,0,0,1,5.68-2,7,7,0,0,1,3.66.81,3.45,3.45,0,0,0-3.66-3.45,3.75,3.75,0,0,0-3.45,2.23l-3.05-1.22a6.46,6.46,0,0,1,6.3-4.06,6.9,6.9,0,0,1,5.28,2,7.49,7.49,0,0,1,1.63,5.28v8.53h-3.46V61.92A6.12,6.12,0,0,1,220,63.34a6.4,6.4,0,0,1-2.84.61A7.83,7.83,0,0,1,213.08,62.33ZM104.81,55a8.44,8.44,0,0,1,8.53-8.54A8.57,8.57,0,0,1,121.88,55a8.54,8.54,0,0,1-17.07,0Zm18.28,0a8.44,8.44,0,0,1,8.54-8.54A8.57,8.57,0,0,1,140.16,55a8.44,8.44,0,0,1-8.53,8.53A8.57,8.57,0,0,1,123.09,55ZM81.86,59.48c-5.08-5.07-4.88-13.4.2-18.68a12.9,12.9,0,0,1,9.35-3.86,12.6,12.6,0,0,1,8.93,3.65l-2.43,2.64a9.08,9.08,0,0,0-13,.21,9.81,9.81,0,0,0,0,13.61,9.2,9.2,0,0,0,13.4.2,7.28,7.28,0,0,0,1.83-4.47H91.61V49.12h12A12.16,12.16,0,0,1,103.8,52a11.69,11.69,0,0,1-3.25,8.12,12.46,12.46,0,0,1-8.74,3.46A15.13,15.13,0,0,1,81.86,59.48Zm85.92,1.43a9.26,9.26,0,0,1,0-12.19,7.39,7.39,0,0,1,11,0A11.75,11.75,0,0,1,181,52.58l-11.17,4.67a4.34,4.34,0,0,0,4.07,2.64,4.6,4.6,0,0,0,4.26-2.44l3.05,2a5.74,5.74,0,0,0-1,1.22C176.72,64.16,170.83,64.16,167.78,60.91Zm21.13,2.43V40.8h7.31c4.26,0,7.72,3,7.72,6.7A6.81,6.81,0,0,1,197,54.2h-4.47v8.94h-3.65Zm17.06,0V40.8h3.45V63.34Zm-45.91-.4V37.75h3.66V62.94Zm62-6.3a5.56,5.56,0,0,0-3.25-.81c-2.44,0-3.86,1.22-3.86,2.64s1.42,2.23,2.84,2.23A4.25,4.25,0,0,0,222,56.64ZM118,55a4.81,4.81,0,0,0-4.68-5.08c-3,0-4.67,2.64-4.67,5.08a4.8,4.8,0,0,0,4.67,5.07C116.19,60.09,118,57.45,118,55Zm18.28,0c0-2.44-1.63-5.08-4.67-5.08A5.09,5.09,0,1,0,136.3,55Zm18.08,1.42a.74.74,0,0,1,.2-.61V54c0-.2-.2-.61-.2-.81a4.73,4.73,0,0,0-4.27-3.46c-2.44,0-4.47,2.44-4.47,5.08a4.82,4.82,0,0,0,4.67,5.08C151.94,60.09,153.56,58.67,154.38,56.44Zm14.82-1.83,7.52-3.25a3.39,3.39,0,0,0-3.05-1.83C170.63,49.73,168.8,53,169.2,54.61Zm31.08-6.91c0-2-1.62-3.45-3.86-3.45h-4.06v7.11h4.27A3.64,3.64,0,0,0,200.28,47.7Z" transform="translate(0 -0.37)"/><path class="cls-5" d="M232.17,66H232v-.2h0V66Z" transform="translate(0 -0.37)"/><path class="cls-5" d="M232.58,66Zm0-.2h0c0,.2-.2.2,0,0Z" transform="translate(0 -0.37)"/><path class="cls-5" d="M232.78,65.78h0v0Z" transform="translate(0 -0.37)"/><path class="cls-6" d="M79,20.89A5.65,5.65,0,0,1,84.91,15a5.41,5.41,0,0,1,4.67,2.44l-1.63,1a3.66,3.66,0,0,0-3-1.42,3.79,3.79,0,0,0-3.86,4.06,3.79,3.79,0,0,0,3.86,4.07,4,4,0,0,0,2.64-1V22.31H84.3V20.48h5.48v4.27a5.93,5.93,0,0,1-4.67,2A5.82,5.82,0,0,1,79,20.89Z" transform="translate(0 -0.37)"/><path class="cls-6" d="M92.22,26.58V15.2h7.72V17H94.05v2.84h5.68V21.7H94.05V25h5.89v1.83Z" transform="translate(0 -0.37)"/><path class="cls-6" d="M105.63,26.58V17h-3.46V15.2h8.94V17h-3.45v9.55Z" transform="translate(0 -0.37)"/><path class="cls-6" d="M118,26.58V15.2h2V26.58Z" transform="translate(0 -0.37)"/><path class="cls-6" d="M125.53,26.58V17h-3.45V15.2H131V17h-3.46v9.55Z" transform="translate(0 -0.37)"/><path class="cls-6" d="M137.52,20.89a5.89,5.89,0,0,1,11.78,0,5.66,5.66,0,0,1-5.89,5.89A5.76,5.76,0,0,1,137.52,20.89Zm9.54,0c0-2.44-1.42-4.06-3.86-4.06a3.91,3.91,0,0,0-3.86,4.06c0,2.44,1.43,4.06,3.86,4.06A3.78,3.78,0,0,0,147.06,20.89Z" transform="translate(0 -0.37)"/><path class="cls-6" d="M159.45,26.58l-5.89-8.13v8.13h-2V15.2h2l5.89,7.92V15.2h2V26.58Z"  transform="translate(0 -0.37)"/></svg>