<svg width="111" height="41" id="Layer_1" data-name="Layer 1" xmlns="http://www.w3.org/2000/svg" xmlns:xlink="http://www.w3.org/1999/xlink" viewBox="0 0 111.55 41.91"><defs><style>.cls-1{fill:#fff;}.cls-2{fill:#00070f;}.cls-3{mask:url(#mask);}.cls-4{fill:#d2d9d6;}</style><mask id="mask" x="0" y="0" width="37.06" height="41.91" maskUnits="userSpaceOnUse"><g transform="translate(1.2 0.96)"><g id="mask0_1:345" data-name="mask0 1:345"><path class="cls-1" d="M15.78.28a8.49,8.49,0,0,0-1.59.25c-.48.12-.95.26-1.42.39A16.4,16.4,0,0,0,2.58,8.5,17.49,17.49,0,0,0,.12,19.87a16.9,16.9,0,0,0,4.23,9.18,31.83,31.83,0,0,0,7,6,34.14,34.14,0,0,0,8.62,4.11,23.36,23.36,0,0,0,2.31.53c.17,0,.35.06.47-.11a.42.42,0,0,0,0-.42,2,2,0,0,0-.26-.39,8.2,8.2,0,0,1-1.21-2.06,1.42,1.42,0,0,1,1-2.15,15.85,15.85,0,0,0,8.05-5.08A17,17,0,0,0,34.62,17,17.19,17.19,0,0,0,28.53,4.49,17,17,0,0,0,17.07.24C16.64.24,16.21.25,15.78.28Z"/></g></g></mask></defs><path class="cls-2" d="M58.91,16.42a5.72,5.72,0,0,0-.4-2A4.1,4.1,0,0,0,57.57,13a3.8,3.8,0,0,0-1.33-.84,4.6,4.6,0,0,0-1.55-.27,3.89,3.89,0,0,0-2.83,1.19,5.13,5.13,0,0,0-1.35,3.33Zm-8.57,3.43a5.86,5.86,0,0,0,1.36,3.72A4.13,4.13,0,0,0,54.94,25a4.49,4.49,0,0,0,2.36-.61,2.75,2.75,0,0,0,1.32-1.69h5.6a9,9,0,0,1-3.34,4.89,9.45,9.45,0,0,1-5.69,1.72q-10.29,0-10.29-11.21a13,13,0,0,1,.67-4.31,9.23,9.23,0,0,1,2-3.3,8.26,8.26,0,0,1,3.11-2.11,11.35,11.35,0,0,1,4.22-.74q4.77,0,7.22,3.06t2.45,9.2Z" transform="translate(1.2 0.96)"/><path class="cls-2" d="M78.9,18.64a2.94,2.94,0,0,1-1.21.66,22.78,22.78,0,0,1-2.3.55A7.87,7.87,0,0,0,72.17,21a2.47,2.47,0,0,0-.88,2.05c0,1.53.88,2.3,2.63,2.3a5.2,5.2,0,0,0,2-.36,4.69,4.69,0,0,0,2.59-2.38,3.83,3.83,0,0,0,.4-1.74Zm.38,10.07a8.39,8.39,0,0,1-.34-1.84,6.64,6.64,0,0,1-2.55,1.74,9.71,9.71,0,0,1-3.68.65c-2.37,0-4.1-.53-5.2-1.57a5.36,5.36,0,0,1-1.66-4.08,7.49,7.49,0,0,1,.71-3.53,5.3,5.3,0,0,1,2-2.07,9.59,9.59,0,0,1,3-1.11c1.16-.24,2.42-.45,3.78-.65a7.18,7.18,0,0,0,2.76-.77,1.75,1.75,0,0,0,.72-1.57,1.76,1.76,0,0,0-1-1.57,4.84,4.84,0,0,0-2.53-.56,3.67,3.67,0,0,0-2.69.83,3.9,3.9,0,0,0-1,2.22H66.52a9.13,9.13,0,0,1,.53-2.93,5.6,5.6,0,0,1,1.54-2.3,7.28,7.28,0,0,1,2.78-1.48,14.49,14.49,0,0,1,4.19-.53,13.58,13.58,0,0,1,4.11.55,6.51,6.51,0,0,1,2.72,1.57,5.91,5.91,0,0,1,1.49,2.55,12.21,12.21,0,0,1,.46,3.45v13Z" transform="translate(1.2 0.96)"/><path class="cls-2" d="M97.93,7.6a14.47,14.47,0,0,0-1.63.08,5.92,5.92,0,0,0-1.57.39A6.13,6.13,0,0,0,93.22,9a6.85,6.85,0,0,0-1.4,1.63V8.14h-5.1V28.71h5.44V18q0-5,5-5a7.69,7.69,0,0,1,.83,0V7.6Z" transform="translate(1.2 0.96)"/><path class="cls-2" d="M110.35,2.63V28.71h-5.44V13.15h-4.57V7.41a10.9,10.9,0,0,0,1.9-.26,5.26,5.26,0,0,0,2-.9,3.77,3.77,0,0,0,1.17-1.51,6.93,6.93,0,0,0,.53-2.11Z" transform="translate(1.2 0.96)"/><g class="cls-3"><path class="cls-4" d="M35.85-1v17.7l-5,0h-.05a6.5,6.5,0,0,0-3.33.92l-1.22.72L25,16.92a2,2,0,0,0-.34-.31,2.14,2.14,0,0,0-1.61-.39,2.17,2.17,0,0,0-1.42.86l-.79,1.08-1.07-3.9a1.93,1.93,0,0,0-3.74.07l-1,4.19-.59-2.66A2.16,2.16,0,0,0,13,14.26a2.13,2.13,0,0,0-1.66.17,2.11,2.11,0,0,0-1,1.28l-.71,2.35-.47-1.41a2.17,2.17,0,0,0-2.06-1.49H5.78a1.21,1.21,0,0,0,0,2.41H6.91l1.37,4.15a1.45,1.45,0,0,0,1.83.92,1.48,1.48,0,0,0,.93-1l1.32-4.39,1.32,5.91a1.42,1.42,0,0,0,1.4,1.13,1.66,1.66,0,0,0,.32,0,1.47,1.47,0,0,0,1.1-1.09L18,16.74l.83,3a1.92,1.92,0,0,0,3.41.63l1.21-1.65,1.06,1.2a2.41,2.41,0,0,0,3,.47l1.21-.72a4,4,0,0,1,2.13-.58l5,0V41H-1.2V-1Z" transform="translate(1.2 0.96)"/></g></svg>