<svg id="Layer_1" data-name="Layer 1" xmlns="http://www.w3.org/2000/svg" viewBox="0 0 48 48"><defs><style>.cls-1{fill:#f2f2f2;}.cls-2{fill:#121212;}</style></defs><circle class="cls-1" cx="24" cy="24" r="24"/><path class="cls-2" d="M28.8,20.28a1.08,1.08,0,1,0-1.08-1.08A1.08,1.08,0,0,0,28.8,20.28Z" transform="translate(0 0)"/><path class="cls-2" d="M24,19.38a4.61,4.61,0,0,0-4.53,5.52,4.59,4.59,0,0,0,3.63,3.63,4.62,4.62,0,1,0,.9-9.15ZM24,27a3,3,0,0,1-1.67-.51,3,3,0,0,1-1.1-1.34,3,3,0,0,1,3.92-3.92,3,3,0,0,1,1.34,1.1A3,3,0,0,1,27,24a3,3,0,0,1-3,3Z" transform="translate(0 0)"/><path class="cls-2" d="M24,16.62c2.4,0,2.69,0,3.64.05a5.3,5.3,0,0,1,1.67.31A3.08,3.08,0,0,1,31,18.69a5.3,5.3,0,0,1,.31,1.67c0,.95.05,1.24.05,3.64s0,2.69-.05,3.64A5.3,5.3,0,0,1,31,29.31,3.08,3.08,0,0,1,29.31,31a5.3,5.3,0,0,1-1.67.31c-.95,0-1.24.05-3.64.05s-2.69,0-3.64-.05A5.3,5.3,0,0,1,18.69,31,3.08,3.08,0,0,1,17,29.31a5.3,5.3,0,0,1-.31-1.67c0-.95-.05-1.24-.05-3.64s0-2.69.05-3.64A5.3,5.3,0,0,1,17,18.69,3.08,3.08,0,0,1,18.69,17a5.3,5.3,0,0,1,1.67-.31c.95,0,1.24-.05,3.64-.05ZM24,15c-2.44,0-2.75,0-3.71.05a6.81,6.81,0,0,0-2.19.42,4.64,4.64,0,0,0-2.63,2.63,6.81,6.81,0,0,0-.42,2.19c0,1-.05,1.27-.05,3.71s0,2.75.05,3.71a6.81,6.81,0,0,0,.42,2.19,4.64,4.64,0,0,0,2.63,2.63,6.81,6.81,0,0,0,2.19.42c1,0,1.27,0,3.71,0s2.75,0,3.71,0a6.81,6.81,0,0,0,2.19-.42,4.66,4.66,0,0,0,1.59-1,4.61,4.61,0,0,0,1-1.6A6.7,6.7,0,0,0,33,27.71c0-1,0-1.27,0-3.71s0-2.75,0-3.71a6.81,6.81,0,0,0-.42-2.19,4.64,4.64,0,0,0-2.63-2.63,6.81,6.81,0,0,0-2.19-.42C26.75,15,26.44,15,24,15Z" transform="translate(0 0)"/></svg>