<svg id="Layer_1" data-name="Layer 1" xmlns="http://www.w3.org/2000/svg" viewBox="0 0 48 48"><defs><style>.cls-1{fill:#f2f2f2;}.cls-2{fill:#121212;}</style></defs><circle class="cls-1" cx="24" cy="24" r="24"/><path class="cls-2" d="M27.3,17.55a2.9,2.9,0,0,0-2.9,2.85l0,1.57a.54.54,0,0,1-.06.25.55.55,0,0,1-.15.2.78.78,0,0,1-.22.12.69.69,0,0,1-.25,0l-1.56-.22a11.67,11.67,0,0,1-5.91-2.8c-.6,3.31.57,5.61,3.38,7.38L21.35,28a.8.8,0,0,1,.2.21.57.57,0,0,1,.08.28.64.64,0,0,1-.06.28.68.68,0,0,1-.18.23l-1.6,1.16a10.29,10.29,0,0,0,2.6-.13c4.71-.94,7.85-4.49,7.85-10.35A3,3,0,0,0,27.3,17.55Zm-4.9,2.81a4.89,4.89,0,0,1,.87-2.69,4.81,4.81,0,0,1,2.21-1.77,4.93,4.93,0,0,1,2.82-.25A4.87,4.87,0,0,1,30.78,17a3.89,3.89,0,0,0,2.67-.65,7.22,7.22,0,0,1-1.21,3.33c0,7.64-4.7,11.36-9.46,12.31-3.27.65-8-.42-9.38-1.84a11.53,11.53,0,0,0,5.14-1.55c-1.38-.91-6.87-4.14-3.26-12.82a14,14,0,0,0,5.15,4,5.71,5.71,0,0,0,2,.54Z" transform="translate(0 0)"/></svg>